<?xml version="1.0"?>
<svg xmlns:rdf="http://www.w3.org/1999/02/22-rdf-syntax-ns#" xmlns="http://www.w3.org/2000/svg" xmlns:cc="http://web.resource.org/cc/" xmlns:dc="http://purl.org/dc/elements/1.1/" xmlns:svg="http://www.w3.org/2000/svg" id="svg14350" viewBox="0 0 150.26 150.26" version="1.0">
  <g id="layer1" transform="translate(-274.87 -457.23)">
    <g id="g9127" transform="translate(-226.62 -34.714)">
      <rect id="rect2642" ry="5.266" transform="rotate(45)" height="106.68" width="106.68" stroke="#000" y="-60.085" x="755.38" stroke-width="3.7488" fill="#db7ed9"/>
      <g id="g8085" transform="matrix(.67543 0 0 .67543 372.89 -2.9521)">
        <path id="path8089" d="m244.4 881.01c-0.23-0.23-0.41-2.57-0.41-5.21v-4.8l9.17-0.28 9.17-0.29 4.08-5.77c5.13-7.26 11.54-12.54 19.7-16.23 8.9-4.03 21.67-4.67 31.78-1.6 9.04 2.75 18.09 9.52 23.93 17.91l4.4 6.31 8.63-0.21 8.64-0.21v10.42l-59.34 0.19c-32.63 0.1-59.52 0-59.75-0.23zm51.59-63.58c0-11.79 0.58-11.17-8.5-8.98-3.3 0.8-6.34 1.46-6.75 1.46-1.74 0.04-0.57-3.96 1.66-5.65 1.32-1.01 6.72-5.82 12-10.7l9.59-8.88 9.62 8.88c5.3 4.88 11.04 10.07 12.75 11.54 4.79 4.09 2.65 5.34-5.79 3.39-3.69-0.86-7.13-1.56-7.65-1.56s-0.93 4.63-0.93 10.5v10.5h-16v-10.5z"/>
        <path id="path8087" d="m244.49 875.93v-5h18.29l3.16-4.92c12.13-18.91 37.15-26.19 57.28-16.66 6.93 3.27 14.65 10.07 18.91 16.65l3.19 4.93h18.17v10h-119v-5zm52.12-48.8c-0.3-0.48-0.45-5.11-0.34-10.29 0.12-5.52-0.21-9.56-0.79-9.77-0.55-0.2-4.03 0.21-7.75 0.91s-7.09 0.93-7.5 0.51c-0.69-0.7 9.67-10.91 19.51-19.21l4.25-3.59 4.25 3.59c9.83 8.3 20.19 18.51 19.5 19.21-0.41 0.42-4.01 0.15-8-0.61-3.99-0.75-7.44-1.16-7.66-0.91s-0.45 4.96-0.5 10.46l-0.09 10-7.17 0.29c-3.94 0.16-7.41-0.1-7.71-0.59z"/>
      </g>
    </g>
  </g>
  <metadata>
    <rdf:RDF>
      <cc:Work>
        <dc:format>image/svg+xml</dc:format>
        <dc:type rdf:resource="http://purl.org/dc/dcmitype/StillImage"/>
        <cc:license rdf:resource="http://creativecommons.org/licenses/publicdomain/"/>
        <dc:publisher>
          <cc:Agent rdf:about="http://openclipart.org/">
            <dc:title>Openclipart</dc:title>
          </cc:Agent>
        </dc:publisher>
        <dc:title>caution_sped hump</dc:title>
        <dc:date>2007-10-19T23:57:12</dc:date>
        <dc:description>clip art, clipart, image, media, public domain, roadsign, roadsign, sign, sign, svg, traffic, traffic, </dc:description>
        <dc:source>http://openclipart.org/detail/7233/caution_sped-hump-by-leomarc</dc:source>
        <dc:creator>
          <cc:Agent>
            <dc:title>Leomarc</dc:title>
          </cc:Agent>
        </dc:creator>
        <dc:subject>
          <rdf:Bag>
            <rdf:li>clip art</rdf:li>
            <rdf:li>clipart</rdf:li>
            <rdf:li>image</rdf:li>
            <rdf:li>media</rdf:li>
            <rdf:li>public domain</rdf:li>
            <rdf:li>roadsign</rdf:li>
            <rdf:li>sign</rdf:li>
            <rdf:li>svg</rdf:li>
            <rdf:li>traffic</rdf:li>
          </rdf:Bag>
        </dc:subject>
      </cc:Work>
      <cc:License rdf:about="http://creativecommons.org/licenses/publicdomain/">
        <cc:permits rdf:resource="http://creativecommons.org/ns#Reproduction"/>
        <cc:permits rdf:resource="http://creativecommons.org/ns#Distribution"/>
        <cc:permits rdf:resource="http://creativecommons.org/ns#DerivativeWorks"/>
      </cc:License>
    </rdf:RDF>
  </metadata>
</svg>
